{"title":"Atlantic.Rim.2013.BRRip.XviD.Ac3.Feel-Free [PublicHash]","uid":8692588,"size":1156483223,"categoryP":"video","categoryS":"movies","magnet":"?xt=urn:btih:488f8fda6a88f90ffbcc0aef38b2a3dd5e29c139&amp;dn=Atlantic.Rim.2013.BRRip.XviD.Ac3.Feel-Free+%5BPublicHash%5D&amp;tr=udp%3A%2F%2Ftracker.openbittorrent.com%3A80&amp;tr=udp%3A%2F%2Fopen.demonii.com%3A1337&amp;tr=udp%3A%2F%2Ftracker.coppersurfer.tk%3A6969&amp;tr=udp%3A%2F%2Fexodus.desync.com%3A6969","seeders":2,"leechers":4,"uploader":"R0thschild","files":2,"time":1373909308,"description":"              ***********************************************\n\n                PublicHash - Largest Bittorrent Community\n      \n                         &lt;a href=&quot; http://publichash.com/&quot; rel=&quot;nofollow&quot; target=&quot;_NEW&quot;&gt; http://publichash.com/&lt;/a&gt;\n\n          Crystal Clean files - Fast Speed! No Virus! No Fake! Enjoy!\n    \n              ***********************************************\nGenre: Action | Sci-Fi\nLanguage:English\nIMDb:http://www.imdb.com/title/tt2740710/\nSource:BluRay.x264-ENCOUNTERS Thanks\nSample:Never\nEncoder:Tony\n\nFormat                                   : AVI\nFormat/Info                              : Audio Video Interleave\nFile size                                : 1.08 GiB\nDuration                                 : 1h 25mn\nOverall bit rate                         : 1 804 Kbps\n\nVideo\nID                                       : 0\nFormat                                   : MPEG-4 Visual\nFormat profile                           : Advanced Simple@L5\nFormat settings, BVOP                    : 1\nFormat settings, QPel                    : No\nFormat settings, GMC                     : No warppoints\nFormat settings, Matrix                  : Default (H.263)\nCodec ID                                 : XVID\nCodec ID/Hint                            : XviD\nDuration                                 : 1h 25mn\nBit rate                                 : 1 411 Kbps\nWidth                                    : 640 pixels\nHeight                                   : 360 pixels\nDisplay aspect ratio                     : 16:9\nFrame rate                               : 23.976 fps\nColor space                              : YUV\nChroma subsampling                       : 4:2:0\nBit depth                                : 8 bits\nScan type                                : Progressive\nCompression mode                         : Lossy\nBits/(Pixel*Frame)                       : 0.255\nStream size                              : 862 MiB (78%)\nWriting library                          : XviD 1.2.1 (UTC 2008-12-04)\n\nAudio\nID                                       : 1\nFormat                                   : AC-3\nFormat/Info                              : Audio Coding 3\nMode extension                           : CM (complete main)\nCodec ID                                 : 2000\nDuration                                 : 1h 25mn\nBit rate mode                            : Constant\nBit rate                                 : 384 Kbps\nChannel(s)                               : 6 channels\nChannel positions                        : Front: L C R, Side: L R, LFE\nSampling rate                            : 48.0 KHz\nBit depth                                : 16 bits\nCompression mode                         : Lossy\nStream size                              : 235 MiB (21%)\nAlignment                                : Aligned on interleaves\nInterleave, duration                     : 42 ms (1.00 video frame)\nInterleave, preload duration             : 512 ms\n\nScreenshots: &lt;a href=&quot;\nhttp://imgsure.com/?p=507778&quot; rel=&quot;nofollow&quot; target=&quot;_NEW&quot;&gt;\nhttp://imgsure.com/?p=507778&lt;/a&gt;  &lt;a href=&quot;\nhttp://imgsure.com/?p=948460&quot; rel=&quot;nofollow&quot; target=&quot;_NEW&quot;&gt;\nhttp://imgsure.com/?p=948460&lt;/a&gt;","torrent":{"xt":"urn:btih:488f8fda6a88f90ffbcc0aef38b2a3dd5e29c139","amp;dn":"Atlantic.Rim.2013.BRRip.XviD.Ac3.Feel-Free+%5BPublicHash%5D","amp;tr":["udp%3A%2F%2Ftracker.openbittorrent.com%3A80","udp%3A%2F%2Fopen.demonii.com%3A1337","udp%3A%2F%2Ftracker.coppersurfer.tk%3A6969","udp%3A%2F%2Fexodus.desync.com%3A6969"],"infoHash":"488f8fda6a88f90ffbcc0aef38b2a3dd5e29c139","infoHashBuffer":{"type":"Buffer","data":[72,143,143,218,106,136,249,15,251,204,10,239,56,178,163,221,94,41,193,57]},"announce":[],"urlList":[]}}